<svg viewBox="0 0 98 32" xmlns="http://www.w3.org/2000/svg" xmlns:xlink="http://www.w3.org/1999/xlink" width="98.000000" height="32.000000" fill="none">
    <rect id="Frame" width="98.000000" height="32.000000" x="0.000000" y="0.000000" fill="rgb(255,255,255)" fill-opacity="0" />
    <path id="Vector" d="M10.075 26.4265C8.83537 26.4265 7.66667 26.2052 6.56874 25.7624C5.48853 25.302 4.54999 24.6557 3.75312 23.8234C2.97395 22.9911 2.38958 22.0083 2 20.8749L5.37343 19.3609C5.86925 20.4411 6.55103 21.2911 7.41873 21.9109C8.30417 22.5307 9.27812 22.8406 10.3406 22.8406C10.9072 22.8406 11.3942 22.752 11.8015 22.5749C12.2088 22.3979 12.5276 22.1588 12.7578 21.8578C12.988 21.539 13.1031 21.1671 13.1031 20.7421C13.1031 20.2817 12.9614 19.8921 12.6781 19.5734C12.3947 19.2369 11.952 18.9713 11.35 18.7766L7.47185 17.5015C5.89582 16.988 4.70936 16.2619 3.91249 15.3234C3.11562 14.3671 2.71718 13.225 2.71718 11.8969C2.71718 10.7281 3.00052 9.70103 3.56718 8.81559C4.15155 7.93021 4.95728 7.23959 5.98436 6.74375C7.02915 6.24792 8.22443 6 9.57028 6C10.7567 6 11.8546 6.20365 12.864 6.61094C13.8734 7.01821 14.7411 7.59377 15.4671 8.33751C16.2109 9.08125 16.7687 9.97553 17.1406 11.0203L13.7937 12.5344C13.4218 11.6135 12.864 10.8964 12.1203 10.3828C11.3766 9.85156 10.5265 9.58596 9.57028 9.58596C9.02136 9.58596 8.53438 9.67447 8.10936 9.85156C7.68433 10.0286 7.35675 10.2854 7.12654 10.6219C6.89634 10.9406 6.78124 11.3125 6.78124 11.7375C6.78124 12.1979 6.93175 12.6052 7.23279 12.9593C7.5338 13.2958 7.98539 13.5614 8.5875 13.7562L12.3859 14.9781C13.9796 15.4916 15.1661 16.2088 15.9453 17.1296C16.7421 18.0505 17.1406 19.1749 17.1406 20.5031C17.1406 21.6541 16.8395 22.6812 16.2374 23.5843C15.6354 24.4697 14.8031 25.1692 13.7406 25.6827C12.6958 26.1786 11.4739 26.4265 10.075 26.4265Z" fill="rgb(202.938,202.938,202.938)" fill-rule="nonzero" />
    <path id="Vector" d="M20.0747 26.1078L20.0747 6.31885L24.1919 6.31885L24.1919 26.1078L20.0747 26.1078Z" fill="rgb(202.938,202.938,202.938)" fill-rule="nonzero" />
    <path id="Vector" d="M27.7009 26.1078L27.7009 6.31885L31.8181 6.31885L31.8181 22.5219L49.1853 22.5219L49.1853 26.1078L27.7009 26.1078Z" fill="rgb(202.938,202.938,202.938)" fill-rule="nonzero" />
    <path id="Vector" d="M9.07494 20.4265C7.83539 20.4265 5.66662 20.2052 4.5687 19.7624C3.48851 19.302 2.54995 18.6557 1.75309 17.8234C0.973952 16.9911 0.389568 16.0083 0 14.8749L3.37344 13.3609C3.86925 14.4411 4.55104 15.2911 5.41869 15.9109C6.30413 16.5307 8.27808 16.8406 9.34061 16.8406C9.90726 16.8406 10.3942 16.752 10.8015 16.5749C11.2088 16.3979 11.5276 16.1588 11.7578 15.8578C11.988 15.539 12.103 15.1671 12.103 14.7421C12.103 14.2817 11.9614 13.8921 11.6781 13.5734C11.3948 13.2369 10.9521 12.9713 10.35 12.7766L6.47187 11.5015C4.89581 10.988 3.70938 10.2619 2.91245 9.32343C2.11558 8.36714 1.71718 7.225 1.71718 5.89687C1.71718 4.7281 2.00051 3.70103 2.56717 2.81559C3.15155 1.93021 3.95725 1.23959 4.98432 0.74375C6.02912 0.247917 7.22445 0 8.57024 0C9.75674 0 10.8547 0.203648 11.864 0.610938C12.8734 1.01821 13.7411 1.59377 14.4671 2.33751C15.2109 3.08125 15.7687 3.97553 16.1405 5.02033L12.7937 6.53438C12.4218 5.61354 11.864 4.89636 11.1203 4.38282C10.3765 3.85156 9.52653 3.58596 8.57024 3.58596C8.02131 3.58596 7.53434 3.67447 7.10931 3.85156C6.68435 4.02865 6.35674 4.28541 6.12653 4.62186C5.89632 4.94058 5.78125 5.31249 5.78125 5.73751C5.78125 6.19793 5.93171 6.60516 6.23277 6.95933C6.53382 7.29578 6.98541 7.56145 7.58745 7.7562L11.3859 8.97809C12.9796 9.49162 14.1661 10.2088 14.9453 11.1296C15.7421 12.0505 16.1405 13.1749 16.1405 14.5031C16.1405 15.6541 15.8395 16.6812 15.2374 17.5843C14.6353 18.4697 13.8031 19.1692 12.7405 19.6827C11.6958 20.1786 10.4739 20.4265 9.07494 20.4265Z" fill="rgb(202.938,202.938,202.938)" fill-rule="nonzero" transform="matrix(1.19249e-08,-1,1,1.19249e-08,34.1235,22.6484)" />
    <path id="Vector" d="M56.4255 26.1078L56.4255 6.31885L60.5427 6.31885L60.5427 26.1078L56.4255 26.1078Z" fill="rgb(202.938,202.938,202.938)" fill-rule="nonzero" />
    <path id="Vector" d="M63.1235 26.2968L63.1235 6.50781L67.2407 6.50781L67.2407 22.7109L75.608 22.7109L75.608 26.2968L63.1235 26.2968Z" fill="rgb(202.938,202.938,202.938)" fill-rule="nonzero" />
    <path id="Vector" d="M77.1174 26.1078L83.8112 6.31885L89.2825 6.31885L95.9763 26.1078L91.4874 26.1078L90.1593 22.0703L82.9075 22.0703L81.5795 26.1078L77.1174 26.1078ZM84.0499 18.4844L89.017 18.4844L85.9891 9.13447L87.1046 9.13447L84.0499 18.4844Z" fill="rgb(202.938,202.938,202.938)" fill-rule="nonzero" />
</svg>
