<svg viewBox="0 0 98.9126 32" xmlns="http://www.w3.org/2000/svg" xmlns:xlink="http://www.w3.org/1999/xlink" width="98.912598" height="32.000000" fill="none">
    <rect id="wavefun" width="98.912643" height="32.000000" x="0.000000" y="0.000000" fill="rgb(255,255,255)" fill-opacity="0" />
    <g id="Group">
        <path id="Vector" d="M15.7647 4C16.2845 4 16.7059 4.42138 16.7059 4.94118L16.7059 10.1176C16.7059 10.6374 16.2845 11.0588 15.7647 11.0588C15.2449 11.0588 14.8235 10.6374 14.8235 10.1176L14.8235 4.94118C14.8235 4.42138 15.2449 4 15.7647 4ZM20.9412 4C21.461 4 21.8824 4.42138 21.8824 4.94118L21.8824 16.2353L16.7059 16.2353L16.7059 23.2941L20.4706 23.2941L20.4706 21.4118C20.4706 20.892 20.892 20.4706 21.4118 20.4706C21.9316 20.4706 22.3529 20.892 22.3529 21.4118L22.3529 27.0588C22.3529 27.5786 21.9316 28 21.4118 28C20.892 28 20.4706 27.5786 20.4706 27.0588L20.4706 25.1765L16.7059 25.1765L16.7059 27.0588C16.7059 27.5786 16.2845 28 15.7647 28C15.2449 28 14.8235 27.5786 14.8235 27.0588L14.8235 14.3529L20 14.3529L20 4.94118C20 4.42138 20.4214 4 20.9412 4ZM10.5882 6.82353C11.108 6.82353 11.5294 7.24491 11.5294 7.76471L11.5294 24.2353C11.5294 24.7551 11.108 25.1765 10.5882 25.1765C10.0684 25.1765 9.64706 24.7551 9.64706 24.2353L9.64706 12.4706L5.88235 12.4706L5.88235 16.2353C5.88235 16.7551 5.46097 17.1765 4.94118 17.1765C4.42138 17.1765 4 16.7551 4 16.2353L4 10.1176C4 9.59785 4.42138 9.17647 4.94118 9.17647C5.46097 9.17647 5.88235 9.59785 5.88235 10.1176L5.88235 10.5882L9.64706 10.5882L9.64706 7.76471C9.64706 7.24491 10.0684 6.82353 10.5882 6.82353ZM27.0588 6.82353C27.5786 6.82353 28 7.24491 28 7.76471L28 11.5294L30.8235 11.5294L30.8235 10.1176C30.8235 9.59785 31.2449 9.17647 31.7647 9.17647C32.2845 9.17647 32.7059 9.59785 32.7059 10.1176L32.7059 21.8824C32.7059 22.4022 32.2845 22.8235 31.7647 22.8235C31.2449 22.8235 30.8235 22.4022 30.8235 21.8824L30.8235 20.9412L28 20.9412L28 23.2941C28 23.8139 27.5786 24.2353 27.0588 24.2353C26.539 24.2353 26.1176 23.8139 26.1176 23.2941L26.1176 7.76471C26.1176 7.24491 26.539 6.82353 27.0588 6.82353ZM28 19.0588L30.8235 19.0588L30.8235 13.4118L28 13.4118L28 19.0588Z" fill="rgb(202.938,202.938,202.938)" fill-rule="evenodd" />
        <path id="Vector" d="M53.6983 22.3645L50.7313 22.3645L48.1845 13.9362L45.6901 22.3645L42.7494 22.3645L38.7058 9L41.6203 9L44.1934 17.4808L46.6878 9L49.6285 9L52.1753 17.4284L54.696 9L57.6104 9L53.6983 22.3645ZM59.1095 11.6256C58.917 12.1332 58.7944 12.6671 58.742 13.2272L61.7877 13.2272C61.8928 12.8072 62.094 12.5008 62.3916 12.3084C62.6892 12.0983 63.188 11.9933 63.8882 11.9933L64.5446 11.9933C65.0172 11.9933 65.3936 12.0544 65.6737 12.177C65.9537 12.282 66.1638 12.4308 66.3038 12.6234C66.4439 12.8159 66.5401 13.0522 66.5926 13.3324C66.6451 13.5949 66.6713 13.8837 66.6713 14.1988L66.6713 14.4613L62.1815 14.4613C61.6214 14.4613 61.1138 14.5663 60.6587 14.7764C60.2211 14.9689 59.8535 15.2403 59.5559 15.5903C59.2583 15.9229 59.0307 16.3256 58.8732 16.7982C58.7157 17.2708 58.6369 17.7784 58.6369 18.321C58.6369 18.8812 58.7069 19.4063 58.847 19.8964C59.0045 20.3865 59.2321 20.8154 59.5297 21.1829C59.8448 21.5331 60.2299 21.8218 60.6849 22.0494C61.14 22.2595 61.6565 22.3645 62.2341 22.3645L69.6909 22.3645L69.6909 13.5687C69.6909 13.0084 69.5947 12.457 69.4021 11.9145C69.2096 11.3543 68.9207 10.8642 68.5356 10.4441C68.1505 10.0065 67.6604 9.65641 67.0652 9.39385C66.4876 9.13127 65.8049 9 65.0172 9L63.4418 9C62.6892 9 62.024 9.12252 61.4464 9.36758C60.8688 9.59514 60.3874 9.90146 60.0023 10.2866C59.6172 10.6717 59.3196 11.118 59.1095 11.6256ZM77.9978 22.3645L75.0571 22.3645L71.0135 9L73.928 9L76.5011 17.4808L78.9955 9L81.9362 9L77.9978 22.3645ZM83.6749 11.9407C83.4299 12.5008 83.3073 13.1048 83.3073 13.7524L83.3073 17.8222C83.3073 18.4873 83.4211 19.1 83.6486 19.6601C83.8761 20.2202 84.1825 20.7016 84.5676 21.1042C84.9702 21.5068 85.4341 21.8306 85.9592 22.0757C86.4843 22.3032 87.0445 22.417 87.6396 22.417L94.44 22.417L94.44 19.4764L88.3223 19.4764C87.7446 19.4764 87.2808 19.345 86.9307 19.0825C86.5806 18.8199 86.4055 18.3736 86.4055 17.7434L86.4055 17.0345L94.9126 17.0345L94.9126 13.6474C94.9126 13.1223 94.8076 12.5884 94.5975 12.0457C94.405 11.4856 94.1249 10.9867 93.7574 10.5491C93.4072 10.094 92.961 9.72642 92.4183 9.44635C91.8931 9.14879 91.2892 9 90.6066 9L87.6134 9C87.0882 9 86.563 9.13127 86.038 9.39385C85.5128 9.6389 85.049 9.98023 84.6464 10.4178C84.2438 10.8554 83.92 11.3631 83.6749 11.9407ZM89.1494 14.5401L86.4318 14.5401L86.4318 14.4088C86.4318 14.0937 86.4755 13.7961 86.563 13.5161C86.6682 13.2185 86.7994 12.9647 86.9569 12.7546C87.1144 12.5447 87.307 12.3783 87.5346 12.2558C87.7622 12.1157 88.016 12.0457 88.296 12.0457L89.9239 12.0457C90.5191 12.0457 90.9917 12.2733 91.3418 12.7284C91.6919 13.166 91.8669 13.7262 91.8669 14.4088L91.8669 14.5401L90.6722 16.2106L89.1494 14.5401ZM61.7089 19.345C61.5339 19.1175 59.1095 18.7762 59.1095 18.321C59.1095 17.8834 61.5339 17.5508 61.7089 17.3232C61.9015 17.0957 62.1116 16.982 62.339 16.982L66.6713 16.982L66.6713 19.6601L62.339 19.6601C62.1116 19.6601 61.9015 19.5551 61.7089 19.345Z" fill="rgb(202.938,202.938,202.938)" fill-rule="evenodd" />
    </g>
</svg>
